<?xml version="1.0" encoding="utf-8" standalone="no"?>
<!DOCTYPE svg PUBLIC "-//W3C//DTD SVG 1.1//EN"
  "http://www.w3.org/Graphics/SVG/1.1/DTD/svg11.dtd">
<!-- Created with matplotlib (https://matplotlib.org/) -->
<svg height="274.664452pt" version="1.1" viewBox="0 0 308.547226 274.664452" width="308.547226pt" xmlns="http://www.w3.org/2000/svg" xmlns:xlink="http://www.w3.org/1999/xlink">
 <metadata>
  <rdf:RDF xmlns:cc="http://creativecommons.org/ns#" xmlns:dc="http://purl.org/dc/elements/1.1/" xmlns:rdf="http://www.w3.org/1999/02/22-rdf-syntax-ns#">
   <cc:Work>
    <dc:type rdf:resource="http://purl.org/dc/dcmitype/StillImage"/>
    <dc:date>2020-09-13T13:13:06.329866</dc:date>
    <dc:format>image/svg+xml</dc:format>
    <dc:creator>
     <cc:Agent>
      <dc:title>Matplotlib v3.3.1, https://matplotlib.org/</dc:title>
     </cc:Agent>
    </dc:creator>
   </cc:Work>
  </rdf:RDF>
 </metadata>
 <defs>
  <style type="text/css">*{stroke-linecap:butt;stroke-linejoin:round;}</style>
 </defs>
 <g id="figure_1">
  <g id="patch_1">
   <path d="M 0 274.664452 
L 308.547226 274.664452 
L 308.547226 0 
L 0 0 
z
" style="fill:#ffffff;"/>
  </g>
  <g id="patch_2">
   <path d="M 40.965958 262.224 
L 295.989958 262.224 
L 295.989958 7.2 
L 40.965958 7.2 
z
" style="fill:#ffffff;"/>
  </g>
  <g id="pane3d_1">
   <g id="patch_3">
    <path d="M 171.924229 126.95126 
L 285.432518 183.39774 
L 290.615545 76.753262 
L 171.924229 25.308407 
" style="fill:#f2f2f2;opacity:0.5;stroke:#f2f2f2;stroke-linejoin:miter;"/>
   </g>
  </g>
  <g id="pane3d_2">
   <g id="patch_4">
    <path d="M 171.924229 126.95126 
L 58.415939 183.39774 
L 53.232913 76.753262 
L 171.924229 25.308407 
" style="fill:#e6e6e6;opacity:0.5;stroke:#e6e6e6;stroke-linejoin:miter;"/>
   </g>
  </g>
  <g id="pane3d_3">
   <g id="patch_5">
    <path d="M 171.924229 126.95126 
L 58.415939 183.39774 
L 171.924229 248.512739 
L 285.432518 183.39774 
" style="fill:#ececec;opacity:0.5;stroke:#ececec;stroke-linejoin:miter;"/>
   </g>
  </g>
  <g id="axis3d_1">
   <g id="line2d_1">
    <path d="M 285.432518 183.39774 
L 171.924229 248.512739 
" style="fill:none;stroke:#000000;stroke-linecap:square;stroke-width:0.8;"/>
   </g>
   <g id="text_1">
    <!-- F1 -->
    <g transform="translate(248.370313 249.614278)scale(0.1 -0.1)">
     <defs>
      <path d="M 45.703125 61.328125 
L 13.671875 61.328125 
L 13.671875 39.453125 
L 37.890625 39.453125 
L 37.890625 32.03125 
L 13.671875 32.03125 
L 13.671875 1.953125 
L 4.6875 1.953125 
L 4.6875 68.75 
L 45.703125 68.75 
z
" id="SimHei-70"/>
      <path d="M 21.875 56.25 
Q 16.796875 51.171875 8.984375 46.484375 
L 8.984375 53.90625 
Q 18.75 60.546875 25 69.53125 
L 29.6875 69.53125 
L 29.6875 2.34375 
L 21.875 2.34375 
z
" id="SimHei-49"/>
     </defs>
     <use xlink:href="#SimHei-70"/>
     <use x="50" xlink:href="#SimHei-49"/>
    </g>
   </g>
   <g id="Line3DCollection_1">
    <path d="M 278.693772 187.26348 
L 165.153095 130.318473 
L 164.864089 28.368511 
" style="fill:none;stroke:#b0b0b0;stroke-width:0.8;"/>
    <path d="M 259.890995 198.049853 
L 146.281652 139.703044 
L 145.173697 36.902998 
" style="fill:none;stroke:#b0b0b0;stroke-width:0.8;"/>
    <path d="M 240.605956 209.11288 
L 126.959315 149.311839 
L 124.992261 45.650319 
" style="fill:none;stroke:#b0b0b0;stroke-width:0.8;"/>
    <path d="M 220.81986 220.463343 
L 107.169727 159.152994 
L 104.301181 54.618537 
" style="fill:none;stroke:#b0b0b0;stroke-width:0.8;"/>
    <path d="M 200.512922 232.112591 
L 86.895732 169.235038 
L 83.080905 63.816126 
" style="fill:none;stroke:#b0b0b0;stroke-width:0.8;"/>
    <path d="M 179.664302 244.07258 
L 66.119326 179.566927 
L 61.310868 73.252001 
" style="fill:none;stroke:#b0b0b0;stroke-width:0.8;"/>
   </g>
   <g id="xtick_1">
    <g id="line2d_2">
     <path d="M 277.720936 186.775565 
L 280.642792 188.240988 
" style="fill:none;stroke:#000000;stroke-linecap:square;stroke-width:0.8;"/>
    </g>
    <g id="text_2">
     <!-- 142.0 -->
     <g transform="translate(276.347226 208.311697)scale(0.1 -0.1)">
      <defs>
       <path d="M 31.25 17.1875 
L 1.171875 17.1875 
L 1.171875 23.828125 
L 32.8125 69.53125 
L 38.671875 69.53125 
L 38.671875 23.828125 
L 48.046875 23.828125 
L 48.046875 17.1875 
L 38.671875 17.1875 
L 38.671875 2.34375 
L 31.25 2.34375 
z
M 31.25 23.828125 
L 31.25 54.6875 
L 9.375 23.828125 
z
" id="SimHei-52"/>
       <path d="M 4.6875 3.90625 
Q 5.078125 9.765625 10.15625 14.453125 
Q 15.234375 19.140625 23.046875 29.09375 
Q 30.859375 39.0625 33.203125 44.53125 
Q 35.546875 50 34.953125 53.90625 
Q 34.375 57.8125 31.25 60.34375 
Q 28.125 62.890625 24.015625 62.5 
Q 19.921875 62.109375 16.203125 59.375 
Q 12.5 56.640625 10.546875 51.171875 
L 3.125 52.34375 
Q 6.25 61.328125 11.125 65.421875 
Q 16.015625 69.53125 22.65625 69.921875 
Q 26.5625 70.3125 29.6875 69.71875 
Q 32.8125 69.140625 36.125 66.984375 
Q 39.453125 64.84375 41.59375 60.546875 
Q 43.75 56.25 43.15625 50.1875 
Q 42.578125 44.140625 37.109375 35.734375 
Q 31.640625 27.34375 16.015625 9.375 
L 44.140625 9.375 
L 44.140625 2.34375 
L 4.6875 2.34375 
z
" id="SimHei-50"/>
       <path d="M 16.796875 1.953125 
L 7.8125 1.953125 
L 7.8125 10.546875 
L 16.796875 10.546875 
z
" id="SimHei-46"/>
       <path d="M 3.125 29.296875 
Q 3.90625 50 6.4375 56.046875 
Q 8.984375 62.109375 13.671875 66.015625 
Q 18.359375 69.921875 25.1875 69.921875 
Q 32.03125 69.921875 37.109375 64.25 
Q 42.1875 58.59375 43.75 50 
Q 45.3125 41.40625 44.71875 30.265625 
Q 44.140625 19.140625 40.8125 12.109375 
Q 37.5 5.078125 30.859375 2.34375 
Q 24.21875 -0.390625 17.578125 2.921875 
Q 10.9375 6.25 8.203125 11.71875 
Q 5.46875 17.1875 4.296875 23.234375 
Q 3.125 29.296875 3.90625 50 
z
M 12.890625 52.734375 
Q 10.546875 31.25 12.5 22.84375 
Q 14.453125 14.453125 18.9375 10.9375 
Q 23.4375 7.421875 28.125 9.5625 
Q 32.8125 11.71875 34.953125 18.15625 
Q 37.109375 24.609375 37.109375 32.21875 
Q 37.109375 39.84375 36.515625 46.09375 
Q 35.9375 52.34375 33 57.421875 
Q 30.078125 62.5 25.1875 62.6875 
Q 20.3125 62.890625 16.59375 57.8125 
Q 12.890625 52.734375 10.546875 31.25 
z
" id="SimHei-48"/>
      </defs>
      <use xlink:href="#SimHei-49"/>
      <use x="50" xlink:href="#SimHei-52"/>
      <use x="100" xlink:href="#SimHei-50"/>
      <use x="150" xlink:href="#SimHei-46"/>
      <use x="200" xlink:href="#SimHei-48"/>
     </g>
    </g>
   </g>
   <g id="xtick_2">
    <g id="line2d_3">
     <path d="M 258.916754 197.549508 
L 261.842873 199.052287 
" style="fill:none;stroke:#000000;stroke-linecap:square;stroke-width:0.8;"/>
    </g>
    <g id="text_3">
     <!-- 142.2 -->
     <g transform="translate(257.627436 219.304292)scale(0.1 -0.1)">
      <use xlink:href="#SimHei-49"/>
      <use x="50" xlink:href="#SimHei-52"/>
      <use x="100" xlink:href="#SimHei-50"/>
      <use x="150" xlink:href="#SimHei-46"/>
      <use x="200" xlink:href="#SimHei-50"/>
     </g>
    </g>
   </g>
   <g id="xtick_3">
    <g id="line2d_4">
     <path d="M 239.630557 208.599624 
L 242.560197 210.141205 
" style="fill:none;stroke:#000000;stroke-linecap:square;stroke-width:0.8;"/>
    </g>
    <g id="text_4">
     <!-- 142.4 -->
     <g transform="translate(238.426326 230.579527)scale(0.1 -0.1)">
      <use xlink:href="#SimHei-49"/>
      <use x="50" xlink:href="#SimHei-52"/>
      <use x="100" xlink:href="#SimHei-50"/>
      <use x="150" xlink:href="#SimHei-46"/>
      <use x="200" xlink:href="#SimHei-52"/>
     </g>
    </g>
   </g>
   <g id="xtick_4">
    <g id="line2d_5">
     <path d="M 219.843571 219.936669 
L 222.775929 221.518575 
" style="fill:none;stroke:#000000;stroke-linecap:square;stroke-width:0.8;"/>
    </g>
    <g id="text_5">
     <!-- 142.6 -->
     <g transform="translate(218.72509 242.148444)scale(0.1 -0.1)">
      <defs>
       <path d="M 3.515625 19.53125 
Q 4.296875 30.859375 6.046875 34.765625 
Q 7.8125 38.671875 11.328125 44.53125 
L 27.34375 69.53125 
L 36.328125 69.53125 
L 19.921875 43.75 
Q 30.46875 46.484375 36.71875 42.96875 
Q 42.96875 39.453125 45.109375 34.953125 
Q 47.265625 30.46875 47.453125 25.1875 
Q 47.65625 19.921875 45.890625 14.84375 
Q 44.140625 9.765625 39.640625 5.65625 
Q 35.15625 1.5625 27.140625 1.171875 
Q 19.140625 0.78125 13.46875 4.09375 
Q 7.8125 7.421875 5.65625 13.46875 
Q 3.515625 19.53125 4.296875 30.859375 
z
M 12.5 16.015625 
Q 19.53125 8.59375 25.390625 8.203125 
Q 31.25 7.8125 35.15625 12.109375 
Q 39.0625 16.40625 39.0625 24.609375 
Q 39.0625 32.8125 34.171875 35.9375 
Q 29.296875 39.0625 23.234375 38.28125 
Q 17.1875 37.5 14.453125 32.421875 
Q 11.71875 27.34375 12.109375 21.671875 
Q 12.5 16.015625 19.53125 8.59375 
z
" id="SimHei-54"/>
      </defs>
      <use xlink:href="#SimHei-49"/>
      <use x="50" xlink:href="#SimHei-52"/>
      <use x="100" xlink:href="#SimHei-50"/>
      <use x="150" xlink:href="#SimHei-46"/>
      <use x="200" xlink:href="#SimHei-54"/>
     </g>
    </g>
   </g>
   <g id="xtick_5">
    <g id="line2d_6">
     <path d="M 199.536034 231.571966 
L 202.470237 233.195801 
" style="fill:none;stroke:#000000;stroke-linecap:square;stroke-width:0.8;"/>
    </g>
    <g id="text_6">
     <!-- 142.8 -->
     <g transform="translate(198.50393 254.02267)scale(0.1 -0.1)">
      <defs>
       <path d="M 2.734375 16.796875 
Q 2.734375 26.171875 5.078125 30.65625 
Q 7.421875 35.15625 12.890625 37.890625 
Q 8.203125 40.625 6.640625 43.9375 
Q 5.078125 47.265625 4.875 51.5625 
Q 4.6875 55.859375 6.046875 58.984375 
Q 7.421875 62.109375 10.15625 64.84375 
Q 12.890625 67.578125 16.203125 68.546875 
Q 19.53125 69.53125 23.4375 69.53125 
Q 27.34375 69.53125 30.46875 68.75 
Q 33.59375 67.96875 37.109375 65.421875 
Q 40.625 62.890625 42.1875 58.203125 
Q 43.75 53.515625 41.984375 47.265625 
Q 40.234375 41.015625 32.8125 37.5 
Q 39.453125 35.546875 42.1875 31.4375 
Q 44.921875 27.34375 44.921875 21.484375 
Q 44.921875 15.625 43.15625 12.109375 
Q 41.40625 8.59375 39.25 6.25 
Q 37.109375 3.90625 33.390625 2.53125 
Q 29.6875 1.171875 24.015625 1.171875 
Q 18.359375 1.171875 14.25 2.53125 
Q 10.15625 3.90625 7.421875 6.640625 
Q 4.6875 9.375 3.703125 13.078125 
Q 2.734375 16.796875 2.734375 26.171875 
z
M 10.9375 26.5625 
Q 10.546875 17.1875 12.296875 13.671875 
Q 14.0625 10.15625 18.75 9.171875 
Q 23.4375 8.203125 28.515625 9.375 
Q 33.59375 10.546875 35.546875 14.84375 
Q 37.5 19.140625 36.90625 23.4375 
Q 36.328125 27.734375 32.03125 30.65625 
Q 27.734375 33.59375 22.65625 33.203125 
Q 17.578125 32.8125 14.25 29.6875 
Q 10.9375 26.5625 10.546875 17.1875 
z
M 12.109375 56.25 
Q 12.109375 48.4375 14.84375 44.921875 
Q 17.578125 41.40625 23.4375 41.40625 
Q 29.296875 41.40625 32.21875 44.921875 
Q 35.15625 48.4375 34.953125 53.3125 
Q 34.765625 58.203125 31.4375 60.546875 
Q 28.125 62.890625 22.453125 62.5 
Q 16.796875 62.109375 14.453125 59.171875 
Q 12.109375 56.25 12.109375 48.4375 
z
" id="SimHei-56"/>
      </defs>
      <use xlink:href="#SimHei-49"/>
      <use x="50" xlink:href="#SimHei-52"/>
      <use x="100" xlink:href="#SimHei-50"/>
      <use x="150" xlink:href="#SimHei-46"/>
      <use x="200" xlink:href="#SimHei-56"/>
     </g>
    </g>
   </g>
   <g id="xtick_6">
    <g id="line2d_7">
     <path d="M 178.687131 243.517442 
L 181.622235 245.184894 
" style="fill:none;stroke:#000000;stroke-linecap:square;stroke-width:0.8;"/>
    </g>
    <g id="text_7">
     <!-- 143.0 -->
     <g transform="translate(177.74199 266.214452)scale(0.1 -0.1)">
      <defs>
       <path d="M 3.90625 19.140625 
L 10.9375 20.3125 
Q 12.5 15.234375 16.015625 11.90625 
Q 19.53125 8.59375 24.796875 8.78125 
Q 30.078125 8.984375 33.203125 13.078125 
Q 36.328125 17.1875 35.9375 22.453125 
Q 35.546875 27.734375 31.828125 30.65625 
Q 28.125 33.59375 19.921875 34.765625 
L 19.921875 39.84375 
Q 28.125 40.625 31.828125 44.140625 
Q 35.546875 47.65625 35.15625 53.3125 
Q 34.765625 58.984375 30.078125 61.515625 
Q 25.390625 64.0625 20.109375 62.109375 
Q 14.84375 60.15625 11.71875 51.171875 
L 4.6875 52.34375 
Q 7.03125 59.375 11.125 64.0625 
Q 15.234375 68.75 22.265625 69.53125 
Q 29.296875 70.3125 34.5625 67.765625 
Q 39.84375 65.234375 41.984375 59.953125 
Q 44.140625 54.6875 42.578125 48.4375 
Q 41.015625 42.1875 33.59375 37.5 
Q 39.0625 35.15625 41.984375 30.46875 
Q 44.921875 25.78125 43.9375 18.15625 
Q 42.96875 10.546875 37.109375 5.859375 
Q 31.25 1.171875 23.828125 1.359375 
Q 16.40625 1.5625 10.9375 6.046875 
Q 5.46875 10.546875 3.90625 19.140625 
z
" id="SimHei-51"/>
      </defs>
      <use xlink:href="#SimHei-49"/>
      <use x="50" xlink:href="#SimHei-52"/>
      <use x="100" xlink:href="#SimHei-51"/>
      <use x="150" xlink:href="#SimHei-46"/>
      <use x="200" xlink:href="#SimHei-48"/>
     </g>
    </g>
   </g>
  </g>
  <g id="axis3d_2">
   <g id="line2d_8">
    <path d="M 58.415939 183.39774 
L 171.924229 248.512739 
" style="fill:none;stroke:#000000;stroke-linecap:square;stroke-width:0.8;"/>
   </g>
   <g id="text_8">
    <!-- F2 -->
    <g transform="translate(85.478144 249.614278)scale(0.1 -0.1)">
     <use xlink:href="#SimHei-70"/>
     <use x="50" xlink:href="#SimHei-50"/>
    </g>
   </g>
   <g id="Line3DCollection_2">
    <path d="M 189.862509 33.083468 
L 189.123418 135.504236 
L 75.540865 193.2216 
" style="fill:none;stroke:#b0b0b0;stroke-width:0.8;"/>
    <path d="M 209.949355 41.789791 
L 208.363914 145.072333 
L 94.729607 204.229386 
" style="fill:none;stroke:#b0b0b0;stroke-width:0.8;"/>
    <path d="M 230.543848 50.716145 
L 228.070147 154.872035 
L 114.417211 215.523348 
" style="fill:none;stroke:#b0b0b0;stroke-width:0.8;"/>
    <path d="M 251.665478 59.870978 
L 248.259235 164.911857 
L 134.623386 227.114793 
" style="fill:none;stroke:#b0b0b0;stroke-width:0.8;"/>
    <path d="M 273.334746 69.263176 
L 268.949145 175.200732 
L 155.368896 239.015631 
" style="fill:none;stroke:#b0b0b0;stroke-width:0.8;"/>
   </g>
   <g id="xtick_7">
    <g id="line2d_9">
     <path d="M 76.51451 192.726839 
L 73.590199 194.212838 
" style="fill:none;stroke:#000000;stroke-linecap:square;stroke-width:0.8;"/>
    </g>
    <g id="text_9">
     <!-- 22.1 -->
     <g transform="translate(55.341429 214.383646)scale(0.1 -0.1)">
      <use xlink:href="#SimHei-50"/>
      <use x="50" xlink:href="#SimHei-50"/>
      <use x="100" xlink:href="#SimHei-46"/>
      <use x="150" xlink:href="#SimHei-49"/>
     </g>
    </g>
   </g>
   <g id="xtick_8">
    <g id="line2d_10">
     <path d="M 95.70453 203.721849 
L 92.776338 205.246241 
" style="fill:none;stroke:#000000;stroke-linecap:square;stroke-width:0.8;"/>
    </g>
    <g id="text_10">
     <!-- 22.2 -->
     <g transform="translate(74.446137 225.602271)scale(0.1 -0.1)">
      <use xlink:href="#SimHei-50"/>
      <use x="50" xlink:href="#SimHei-50"/>
      <use x="100" xlink:href="#SimHei-46"/>
      <use x="150" xlink:href="#SimHei-50"/>
     </g>
    </g>
   </g>
   <g id="xtick_9">
    <g id="line2d_11">
     <path d="M 115.393149 215.002534 
L 112.461863 216.566826 
" style="fill:none;stroke:#000000;stroke-linecap:square;stroke-width:0.8;"/>
    </g>
    <g id="text_11">
     <!-- 22.3 -->
     <g transform="translate(94.048758 237.11328)scale(0.1 -0.1)">
      <use xlink:href="#SimHei-50"/>
      <use x="50" xlink:href="#SimHei-50"/>
      <use x="100" xlink:href="#SimHei-46"/>
      <use x="150" xlink:href="#SimHei-51"/>
     </g>
    </g>
   </g>
   <g id="xtick_10">
    <g id="line2d_12">
     <path d="M 135.600056 226.580175 
L 132.666527 228.185954 
" style="fill:none;stroke:#000000;stroke-linecap:square;stroke-width:0.8;"/>
    </g>
    <g id="text_12">
     <!-- 22.4 -->
     <g transform="translate(114.169015 248.928255)scale(0.1 -0.1)">
      <use xlink:href="#SimHei-50"/>
      <use x="50" xlink:href="#SimHei-50"/>
      <use x="100" xlink:href="#SimHei-46"/>
      <use x="150" xlink:href="#SimHei-52"/>
     </g>
    </g>
   </g>
   <g id="xtick_11">
    <g id="line2d_13">
     <path d="M 156.345988 238.466653 
L 153.411142 240.115592 
" style="fill:none;stroke:#000000;stroke-linecap:square;stroke-width:0.8;"/>
    </g>
    <g id="text_13">
     <!-- 22.5 -->
     <g transform="translate(134.827687 261.059395)scale(0.1 -0.1)">
      <defs>
       <path d="M 8.59375 20.703125 
Q 11.328125 10.15625 17.96875 8.984375 
Q 24.609375 7.8125 28.703125 10.34375 
Q 32.8125 12.890625 34.5625 16.984375 
Q 36.328125 21.09375 36.125 26.171875 
Q 35.9375 31.25 33.390625 34.765625 
Q 30.859375 38.28125 26.953125 39.453125 
Q 23.046875 40.625 18.15625 39.453125 
Q 13.28125 38.28125 10.15625 33.984375 
L 3.515625 34.765625 
Q 4.296875 37.109375 10.9375 68.359375 
L 41.796875 68.359375 
L 41.796875 61.328125 
L 16.796875 61.328125 
Q 14.84375 50.78125 12.890625 44.53125 
Q 18.75 47.265625 23.828125 47.0625 
Q 28.90625 46.875 33.59375 44.71875 
Q 38.28125 42.578125 40.421875 38.859375 
Q 42.578125 35.15625 43.546875 31.4375 
Q 44.53125 27.734375 44.328125 23.4375 
Q 44.140625 19.140625 42.578125 14.640625 
Q 41.015625 10.15625 37.890625 7.21875 
Q 34.765625 4.296875 30.265625 2.53125 
Q 25.78125 0.78125 19.921875 1.171875 
Q 14.0625 1.5625 8.78125 5.46875 
Q 3.515625 9.375 1.5625 18.75 
z
" id="SimHei-53"/>
      </defs>
      <use xlink:href="#SimHei-50"/>
      <use x="50" xlink:href="#SimHei-50"/>
      <use x="100" xlink:href="#SimHei-46"/>
      <use x="150" xlink:href="#SimHei-53"/>
     </g>
    </g>
   </g>
  </g>
  <g id="axis3d_3">
   <g id="line2d_14">
    <path d="M 58.415939 183.39774 
L 53.232913 76.753262 
" style="fill:none;stroke:#000000;stroke-linecap:square;stroke-width:0.8;"/>
   </g>
   <g id="text_14">
    <!-- F3 -->
    <g transform="translate(7.2 134.07823)scale(0.1 -0.1)">
     <use xlink:href="#SimHei-70"/>
     <use x="50" xlink:href="#SimHei-51"/>
    </g>
   </g>
   <g id="Line3DCollection_3">
    <path d="M 58.054728 175.965549 
L 171.924229 119.847612 
L 285.79373 175.965549 
" style="fill:none;stroke:#b0b0b0;stroke-width:0.8;"/>
    <path d="M 57.377854 162.038385 
L 171.924229 106.544206 
L 286.470604 162.038385 
" style="fill:none;stroke:#b0b0b0;stroke-width:0.8;"/>
    <path d="M 56.692885 147.944657 
L 171.924229 93.092435 
L 287.155573 147.944657 
" style="fill:none;stroke:#b0b0b0;stroke-width:0.8;"/>
    <path d="M 55.999674 133.681359 
L 171.924229 79.489804 
L 287.848783 133.681359 
" style="fill:none;stroke:#b0b0b0;stroke-width:0.8;"/>
    <path d="M 55.298073 119.245411 
L 171.924229 65.733762 
L 288.550384 119.245411 
" style="fill:none;stroke:#b0b0b0;stroke-width:0.8;"/>
    <path d="M 54.587927 104.63366 
L 171.924229 51.821697 
L 289.26053 104.63366 
" style="fill:none;stroke:#b0b0b0;stroke-width:0.8;"/>
    <path d="M 53.869081 89.842875 
L 171.924229 37.75094 
L 289.979377 89.842875 
" style="fill:none;stroke:#b0b0b0;stroke-width:0.8;"/>
   </g>
   <g id="xtick_12">
    <g id="line2d_15">
     <path d="M 59.030292 175.484764 
L 56.100245 176.92877 
" style="fill:none;stroke:#000000;stroke-linecap:square;stroke-width:0.8;"/>
    </g>
    <g id="text_15">
     <!-- 503.0 -->
     <g transform="translate(25.837065 182.840549)scale(0.1 -0.1)">
      <use xlink:href="#SimHei-53"/>
      <use x="50" xlink:href="#SimHei-48"/>
      <use x="100" xlink:href="#SimHei-51"/>
      <use x="150" xlink:href="#SimHei-46"/>
      <use x="200" xlink:href="#SimHei-48"/>
     </g>
    </g>
   </g>
   <g id="xtick_13">
    <g id="line2d_16">
     <path d="M 58.359603 161.562758 
L 55.410959 162.991285 
" style="fill:none;stroke:#000000;stroke-linecap:square;stroke-width:0.8;"/>
    </g>
    <g id="text_16">
     <!-- 503.2 -->
     <g transform="translate(25.042984 168.913385)scale(0.1 -0.1)">
      <use xlink:href="#SimHei-53"/>
      <use x="50" xlink:href="#SimHei-48"/>
      <use x="100" xlink:href="#SimHei-51"/>
      <use x="150" xlink:href="#SimHei-46"/>
      <use x="200" xlink:href="#SimHei-50"/>
     </g>
    </g>
   </g>
   <g id="xtick_14">
    <g id="line2d_17">
     <path d="M 57.680898 147.474345 
L 54.713421 148.886918 
" style="fill:none;stroke:#000000;stroke-linecap:square;stroke-width:0.8;"/>
    </g>
    <g id="text_17">
     <!-- 503.4 -->
     <g transform="translate(24.239405 154.819657)scale(0.1 -0.1)">
      <use xlink:href="#SimHei-53"/>
      <use x="50" xlink:href="#SimHei-48"/>
      <use x="100" xlink:href="#SimHei-51"/>
      <use x="150" xlink:href="#SimHei-46"/>
      <use x="200" xlink:href="#SimHei-52"/>
     </g>
    </g>
   </g>
   <g id="xtick_15">
    <g id="line2d_18">
     <path d="M 56.994032 133.216524 
L 54.00748 134.612655 
" style="fill:none;stroke:#000000;stroke-linecap:square;stroke-width:0.8;"/>
    </g>
    <g id="text_18">
     <!-- 503.6 -->
     <g transform="translate(23.426158 140.556359)scale(0.1 -0.1)">
      <use xlink:href="#SimHei-53"/>
      <use x="50" xlink:href="#SimHei-48"/>
      <use x="100" xlink:href="#SimHei-51"/>
      <use x="150" xlink:href="#SimHei-46"/>
      <use x="200" xlink:href="#SimHei-54"/>
     </g>
    </g>
   </g>
   <g id="xtick_16">
    <g id="line2d_19">
     <path d="M 56.298856 118.786221 
L 53.292984 120.165407 
" style="fill:none;stroke:#000000;stroke-linecap:square;stroke-width:0.8;"/>
    </g>
    <g id="text_19">
     <!-- 503.8 -->
     <g transform="translate(22.603068 126.120411)scale(0.1 -0.1)">
      <use xlink:href="#SimHei-53"/>
      <use x="50" xlink:href="#SimHei-48"/>
      <use x="100" xlink:href="#SimHei-51"/>
      <use x="150" xlink:href="#SimHei-46"/>
      <use x="200" xlink:href="#SimHei-56"/>
     </g>
    </g>
   </g>
   <g id="xtick_17">
    <g id="line2d_20">
     <path d="M 55.595219 104.180287 
L 52.569776 105.542011 
" style="fill:none;stroke:#000000;stroke-linecap:square;stroke-width:0.8;"/>
    </g>
    <g id="text_20">
     <!-- 504.0 -->
     <g transform="translate(21.769953 111.50866)scale(0.1 -0.1)">
      <use xlink:href="#SimHei-53"/>
      <use x="50" xlink:href="#SimHei-48"/>
      <use x="100" xlink:href="#SimHei-52"/>
      <use x="150" xlink:href="#SimHei-46"/>
      <use x="200" xlink:href="#SimHei-48"/>
     </g>
    </g>
   </g>
   <g id="xtick_18">
    <g id="line2d_21">
     <path d="M 54.882966 89.395497 
L 51.837696 90.739225 
" style="fill:none;stroke:#000000;stroke-linecap:square;stroke-width:0.8;"/>
    </g>
    <g id="text_21">
     <!-- 504.2 -->
     <g transform="translate(20.926631 96.717875)scale(0.1 -0.1)">
      <use xlink:href="#SimHei-53"/>
      <use x="50" xlink:href="#SimHei-48"/>
      <use x="100" xlink:href="#SimHei-52"/>
      <use x="150" xlink:href="#SimHei-46"/>
      <use x="200" xlink:href="#SimHei-50"/>
     </g>
    </g>
   </g>
  </g>
  <g id="axes_1">
   <g id="line2d_22">
    <defs>
     <path d="M 0 1.5 
C 0.397805 1.5 0.77937 1.341951 1.06066 1.06066 
C 1.341951 0.77937 1.5 0.397805 1.5 0 
C 1.5 -0.397805 1.341951 -0.77937 1.06066 -1.06066 
C 0.77937 -1.341951 0.397805 -1.5 0 -1.5 
C -0.397805 -1.5 -0.77937 -1.341951 -1.06066 -1.06066 
C -1.341951 -0.77937 -1.5 -0.397805 -1.5 0 
C -1.5 0.397805 -1.341951 0.77937 -1.06066 1.06066 
C -0.77937 1.341951 -0.397805 1.5 0 1.5 
z
" id="mb6c5edaaf3" style="stroke:#4682b4;"/>
    </defs>
    <g clip-path="url(#pe8f8493af2)">
     <use style="fill:#4682b4;stroke:#4682b4;" x="272.372005" xlink:href="#mb6c5edaaf3" y="78.009822"/>
     <use style="fill:#4682b4;stroke:#4682b4;" x="75.033129" xlink:href="#mb6c5edaaf3" y="179.05818"/>
     <use style="fill:#4682b4;stroke:#4682b4;" x="272.339929" xlink:href="#mb6c5edaaf3" y="81.165162"/>
     <use style="fill:#4682b4;stroke:#4682b4;" x="272.423206" xlink:href="#mb6c5edaaf3" y="88.263546"/>
     <use style="fill:#4682b4;stroke:#4682b4;" x="74.527935" xlink:href="#mb6c5edaaf3" y="173.216088"/>
     <use style="fill:#4682b4;stroke:#4682b4;" x="272.434349" xlink:href="#mb6c5edaaf3" y="105.984708"/>
     <use style="fill:#4682b4;stroke:#4682b4;" x="272.372851" xlink:href="#mb6c5edaaf3" y="109.314314"/>
     <use style="fill:#4682b4;stroke:#4682b4;" x="272.438681" xlink:href="#mb6c5edaaf3" y="83.22127"/>
     <use style="fill:#4682b4;stroke:#4682b4;" x="73.073046" xlink:href="#mb6c5edaaf3" y="154.637031"/>
     <use style="fill:#4682b4;stroke:#4682b4;" x="73.430999" xlink:href="#mb6c5edaaf3" y="158.502971"/>
     <use style="fill:#4682b4;stroke:#4682b4;" x="272.410016" xlink:href="#mb6c5edaaf3" y="96.371228"/>
     <use style="fill:#4682b4;stroke:#4682b4;" x="75.185459" xlink:href="#mb6c5edaaf3" y="180.539151"/>
     <use style="fill:#4682b4;stroke:#4682b4;" x="73.670643" xlink:href="#mb6c5edaaf3" y="161.799923"/>
     <use style="fill:#4682b4;stroke:#4682b4;" x="272.345353" xlink:href="#mb6c5edaaf3" y="86.502554"/>
     <use style="fill:#4682b4;stroke:#4682b4;" x="71.89088" xlink:href="#mb6c5edaaf3" y="126.384263"/>
     <use style="fill:#4682b4;stroke:#4682b4;" x="75.694685" xlink:href="#mb6c5edaaf3" y="183.010517"/>
     <use style="fill:#4682b4;stroke:#4682b4;" x="69.924148" xlink:href="#mb6c5edaaf3" y="114.123366"/>
     <use style="fill:#4682b4;stroke:#4682b4;" x="74.675545" xlink:href="#mb6c5edaaf3" y="175.151181"/>
     <use style="fill:#4682b4;stroke:#4682b4;" x="272.540306" xlink:href="#mb6c5edaaf3" y="109.499994"/>
     <use style="fill:#4682b4;stroke:#4682b4;" x="70.37794" xlink:href="#mb6c5edaaf3" y="117.53606"/>
     <use style="fill:#4682b4;stroke:#4682b4;" x="69.953026" xlink:href="#mb6c5edaaf3" y="114.346525"/>
     <use style="fill:#4682b4;stroke:#4682b4;" x="272.422111" xlink:href="#mb6c5edaaf3" y="93.150833"/>
     <use style="fill:#4682b4;stroke:#4682b4;" x="272.434349" xlink:href="#mb6c5edaaf3" y="105.984708"/>
     <use style="fill:#4682b4;stroke:#4682b4;" x="75.563178" xlink:href="#mb6c5edaaf3" y="182.143656"/>
     <use style="fill:#4682b4;stroke:#4682b4;" x="73.90962" xlink:href="#mb6c5edaaf3" y="165.145861"/>
     <use style="fill:#4682b4;stroke:#4682b4;" x="74.353162" xlink:href="#mb6c5edaaf3" y="170.236383"/>
     <use style="fill:#4682b4;stroke:#4682b4;" x="272.339343" xlink:href="#mb6c5edaaf3" y="77.632477"/>
     <use style="fill:#4682b4;stroke:#4682b4;" x="272.36588" xlink:href="#mb6c5edaaf3" y="100.742432"/>
     <use style="fill:#4682b4;stroke:#4682b4;" x="70.220561" xlink:href="#mb6c5edaaf3" y="116.12224"/>
     <use style="fill:#4682b4;stroke:#4682b4;" x="73.590837" xlink:href="#mb6c5edaaf3" y="161.272444"/>
     <use style="fill:#4682b4;stroke:#4682b4;" x="73.261793" xlink:href="#mb6c5edaaf3" y="157.038383"/>
     <use style="fill:#4682b4;stroke:#4682b4;" x="273.187018" xlink:href="#mb6c5edaaf3" y="121.282406"/>
     <use style="fill:#4682b4;stroke:#4682b4;" x="74.220474" xlink:href="#mb6c5edaaf3" y="169.359653"/>
     <use style="fill:#4682b4;stroke:#4682b4;" x="272.357027" xlink:href="#mb6c5edaaf3" y="95.762597"/>
     <use style="fill:#4682b4;stroke:#4682b4;" x="272.401491" xlink:href="#mb6c5edaaf3" y="98.51098"/>
     <use style="fill:#4682b4;stroke:#4682b4;" x="273.417336" xlink:href="#mb6c5edaaf3" y="123.95684"/>
     <use style="fill:#4682b4;stroke:#4682b4;" x="273.477852" xlink:href="#mb6c5edaaf3" y="124.649179"/>
     <use style="fill:#4682b4;stroke:#4682b4;" x="272.370693" xlink:href="#mb6c5edaaf3" y="90.737038"/>
     <use style="fill:#4682b4;stroke:#4682b4;" x="272.385236" xlink:href="#mb6c5edaaf3" y="103.463493"/>
     <use style="fill:#4682b4;stroke:#4682b4;" x="73.07181" xlink:href="#mb6c5edaaf3" y="154.616601"/>
     <use style="fill:#4682b4;stroke:#4682b4;" x="69.95915" xlink:href="#mb6c5edaaf3" y="114.370184"/>
     <use style="fill:#4682b4;stroke:#4682b4;" x="75.694685" xlink:href="#mb6c5edaaf3" y="183.010517"/>
     <use style="fill:#4682b4;stroke:#4682b4;" x="74.07163" xlink:href="#mb6c5edaaf3" y="166.583836"/>
     <use style="fill:#4682b4;stroke:#4682b4;" x="272.353401" xlink:href="#mb6c5edaaf3" y="90.538093"/>
     <use style="fill:#4682b4;stroke:#4682b4;" x="74.907633" xlink:href="#mb6c5edaaf3" y="176.681713"/>
     <use style="fill:#4682b4;stroke:#4682b4;" x="70.576813" xlink:href="#mb6c5edaaf3" y="118.863783"/>
     <use style="fill:#4682b4;stroke:#4682b4;" x="74.482342" xlink:href="#mb6c5edaaf3" y="172.690486"/>
     <use style="fill:#4682b4;stroke:#4682b4;" x="272.434758" xlink:href="#mb6c5edaaf3" y="102.102841"/>
     <use style="fill:#4682b4;stroke:#4682b4;" x="73.783517" xlink:href="#mb6c5edaaf3" y="163.569403"/>
     <use style="fill:#4682b4;stroke:#4682b4;" x="273.298787" xlink:href="#mb6c5edaaf3" y="122.600544"/>
    </g>
   </g>
   <g id="legend_1">
    <g id="patch_6">
     <path d="M 196.989958 28.45 
L 288.989958 28.45 
Q 290.989958 28.45 290.989958 26.45 
L 290.989958 14.2 
Q 290.989958 12.2 288.989958 12.2 
L 196.989958 12.2 
Q 194.989958 12.2 194.989958 14.2 
L 194.989958 26.45 
Q 194.989958 28.45 196.989958 28.45 
z
" style="fill:#ffffff;opacity:0.8;stroke:#cccccc;stroke-linejoin:miter;"/>
    </g>
    <g id="line2d_23"/>
    <g id="line2d_24">
     <g>
      <use style="fill:#4682b4;stroke:#4682b4;" x="208.989958" xlink:href="#mb6c5edaaf3" y="19.7"/>
     </g>
    </g>
    <g id="text_22">
     <!-- Pareto Front -->
     <g transform="translate(226.989958 23.2)scale(0.1 -0.1)">
      <defs>
       <path d="M 46.09375 48.4375 
Q 46.09375 39.0625 40.625 33.59375 
Q 35.15625 28.125 25.390625 28.125 
L 14.0625 28.125 
L 14.0625 1.953125 
L 5.078125 1.953125 
L 5.078125 68.75 
L 25.390625 68.75 
Q 35.15625 68.75 40.625 63.28125 
Q 46.09375 57.8125 46.09375 48.4375 
z
M 37.109375 48.4375 
Q 37.109375 55.859375 33.59375 58.59375 
Q 30.078125 61.328125 23.046875 61.328125 
L 14.0625 61.328125 
L 14.0625 35.546875 
L 23.046875 35.546875 
Q 30.078125 35.546875 33.59375 38.28125 
Q 37.109375 41.015625 37.109375 48.4375 
z
" id="SimHei-80"/>
       <path d="M 44.921875 1.953125 
L 35.546875 1.953125 
Q 34.765625 2.734375 34.375 4.09375 
Q 33.984375 5.46875 33.984375 7.421875 
Q 31.25 4.296875 27.34375 2.734375 
Q 23.4375 1.171875 19.140625 1.171875 
Q 12.890625 1.171875 8.59375 4.296875 
Q 4.296875 7.421875 4.296875 13.28125 
Q 4.296875 19.140625 8.203125 22.65625 
Q 12.109375 26.171875 20.3125 27.34375 
Q 25.78125 28.125 29.875 29.296875 
Q 33.984375 30.46875 33.984375 32.421875 
Q 33.984375 34.765625 32.21875 37.109375 
Q 30.46875 39.453125 24.609375 39.453125 
Q 19.921875 39.453125 17.765625 37.6875 
Q 15.625 35.9375 14.84375 32.8125 
L 6.25 32.8125 
Q 7.03125 39.0625 11.90625 42.765625 
Q 16.796875 46.484375 24.609375 46.484375 
Q 33.203125 46.484375 37.5 42.578125 
Q 41.796875 38.671875 41.796875 31.640625 
L 41.796875 10.15625 
Q 41.796875 7.8125 42.578125 5.859375 
Q 43.359375 3.90625 44.921875 1.953125 
z
M 33.984375 16.40625 
L 33.984375 24.21875 
Q 31.640625 23.4375 29.484375 22.84375 
Q 27.34375 22.265625 22.265625 21.484375 
Q 16.40625 20.703125 14.640625 18.75 
Q 12.890625 16.796875 12.890625 14.0625 
Q 12.890625 11.71875 14.640625 9.953125 
Q 16.40625 8.203125 19.921875 8.203125 
Q 23.4375 8.203125 27.53125 10.15625 
Q 31.640625 12.109375 33.984375 16.40625 
z
" id="SimHei-97"/>
       <path d="M 39.0625 37.890625 
Q 31.640625 39.0625 26.5625 35.734375 
Q 21.484375 32.421875 17.96875 24.21875 
L 17.96875 1.953125 
L 10.15625 1.953125 
L 10.15625 45.703125 
L 17.96875 45.703125 
L 17.96875 34.375 
Q 21.484375 40.625 26.75 43.546875 
Q 32.03125 46.484375 39.0625 46.484375 
z
" id="SimHei-114"/>
       <path d="M 44.53125 16.796875 
Q 43.75 9.765625 38.28125 5.46875 
Q 32.8125 1.171875 25.390625 1.171875 
Q 16.015625 1.171875 9.953125 7.21875 
Q 3.90625 13.28125 3.90625 23.828125 
Q 3.90625 34.375 9.953125 40.421875 
Q 16.015625 46.484375 25.390625 46.484375 
Q 33.59375 46.484375 38.859375 41.203125 
Q 44.140625 35.9375 44.140625 23.828125 
L 12.5 23.828125 
Q 12.5 15.234375 16.203125 11.71875 
Q 19.921875 8.203125 25.390625 8.203125 
Q 29.6875 8.203125 32.421875 10.34375 
Q 35.15625 12.5 35.9375 16.796875 
z
M 35.15625 30.078125 
Q 34.375 35.546875 31.640625 37.6875 
Q 28.90625 39.84375 24.609375 39.84375 
Q 20.703125 39.84375 17.578125 37.6875 
Q 14.453125 35.546875 12.890625 30.078125 
z
" id="SimHei-101"/>
       <path d="M 42.96875 3.125 
Q 41.015625 2.34375 38.46875 1.75 
Q 35.9375 1.171875 31.640625 1.171875 
Q 24.609375 1.171875 20.3125 5.078125 
Q 16.015625 8.984375 16.015625 16.015625 
L 16.015625 39.453125 
L 2.734375 39.453125 
L 2.734375 45.703125 
L 16.015625 45.703125 
L 16.015625 60.9375 
L 23.828125 60.9375 
L 23.828125 45.703125 
L 39.84375 45.703125 
L 39.84375 39.453125 
L 23.828125 39.453125 
L 23.828125 15.625 
Q 23.828125 12.5 25.390625 10.34375 
Q 26.953125 8.203125 31.25 8.203125 
Q 35.546875 8.203125 38.28125 8.984375 
Q 41.015625 9.765625 42.96875 10.9375 
z
" id="SimHei-116"/>
       <path d="M 45.703125 23.828125 
Q 45.703125 13.671875 39.453125 7.421875 
Q 33.203125 1.171875 24.609375 1.171875 
Q 16.015625 1.171875 9.765625 7.421875 
Q 3.515625 13.671875 3.515625 23.828125 
Q 3.515625 33.984375 9.765625 40.234375 
Q 16.015625 46.484375 24.609375 46.484375 
Q 33.203125 46.484375 39.453125 40.234375 
Q 45.703125 33.984375 45.703125 23.828125 
z
M 37.109375 23.828125 
Q 37.109375 31.640625 33.203125 35.546875 
Q 29.296875 39.453125 24.609375 39.453125 
Q 19.921875 39.453125 16.015625 35.546875 
Q 12.109375 31.640625 12.109375 23.828125 
Q 12.109375 16.015625 16.015625 12.109375 
Q 19.921875 8.203125 24.609375 8.203125 
Q 29.296875 8.203125 33.203125 12.109375 
Q 37.109375 16.015625 37.109375 23.828125 
z
" id="SimHei-111"/>
       <path id="SimHei-32"/>
       <path d="M 43.75 1.953125 
L 35.9375 1.953125 
L 35.9375 30.078125 
Q 35.9375 34.765625 33.59375 37.5 
Q 31.25 40.234375 27.34375 40.234375 
Q 22.265625 40.234375 17.765625 34.953125 
Q 13.28125 29.6875 13.28125 21.875 
L 13.28125 1.953125 
L 5.46875 1.953125 
L 5.46875 45.703125 
L 13.28125 45.703125 
L 13.28125 37.5 
Q 16.40625 41.796875 20.109375 44.140625 
Q 23.828125 46.484375 29.6875 46.484375 
Q 36.71875 46.484375 40.234375 42.578125 
Q 43.75 38.671875 43.75 32.8125 
z
" id="SimHei-110"/>
      </defs>
      <use xlink:href="#SimHei-80"/>
      <use x="50" xlink:href="#SimHei-97"/>
      <use x="100" xlink:href="#SimHei-114"/>
      <use x="150" xlink:href="#SimHei-101"/>
      <use x="200" xlink:href="#SimHei-116"/>
      <use x="250" xlink:href="#SimHei-111"/>
      <use x="300" xlink:href="#SimHei-32"/>
      <use x="350" xlink:href="#SimHei-70"/>
      <use x="400" xlink:href="#SimHei-114"/>
      <use x="450" xlink:href="#SimHei-111"/>
      <use x="500" xlink:href="#SimHei-110"/>
      <use x="550" xlink:href="#SimHei-116"/>
     </g>
    </g>
   </g>
  </g>
 </g>
 <defs>
  <clipPath id="pe8f8493af2">
   <rect height="255.024" width="255.024" x="40.965958" y="7.2"/>
  </clipPath>
 </defs>
</svg>
